<svg xmlns="http://www.w3.org/2000/svg" id="icon_calendar" width="14" height="14" viewBox="0 0 14 14">
    <defs>
        <style>
            .cls-2{fill:#555}
        </style>
    </defs>
    <path id="Rectangle_1224" fill="rgba(255,255,255,0)" d="M0 0H14V14H0z"/>
    <path id="Path_18" d="M285.25 185.75V185H284v.75h-6V185h-1.25v.75H274v12.75h14v-12.75zm-8.5 1.25v.75H278V187h6v.75h1.25V187h1.5v1.75h-11.5V187zm-1.5 10.25V190h11.5v7.25z" class="cls-2" transform="translate(-274 -185)"/>
    <path id="Rectangle_977" d="M0 0H1.57V1.57H0z" class="cls-2" transform="translate(3.14 6.28)"/>
    <path id="Rectangle_978" d="M0 0H1.57V1.57H0z" class="cls-2" transform="translate(6.28 6.28)"/>
    <path id="Rectangle_979" d="M0 0H1.57V1.57H0z" class="cls-2" transform="translate(9.42 6.28)"/>
    <path id="Rectangle_980" d="M0 0H1.57V1.57H0z" class="cls-2" transform="translate(3.14 9.42)"/>
    <path id="Rectangle_981" d="M0 0H1.57V1.57H0z" class="cls-2" transform="translate(6.28 9.42)"/>
    <path id="Rectangle_982" d="M0 0H1.57V1.57H0z" class="cls-2" transform="translate(9.42 9.42)"/>
</svg>
