<svg xmlns="http://www.w3.org/2000/svg" id="icon_call" width="20" height="20" viewBox="0 0 20 20">
    <defs>
        <style>
            .cls-2{fill:none;stroke:#fff;stroke-miterlimit:10;stroke-width:1.5px}
        </style>
    </defs>
    <path id="Line_40" d="M8 0L0 0" class="cls-2" transform="translate(10 6.5)"/>
    <path id="Path_11" d="M284.346 281a.9.9 0 0 0-.66-.27 10.905 10.905 0 0 1-1.677-.13 9.926 9.926 0 0 1-1.612-.39.9.9 0 0 0-.5-.033.89.89 0 0 0-.454.249l-1.608 1.208a10.95 10.95 0 0 1-5.66-5.7l1.515-1.259a.964.964 0 0 0 .26-.443.877.877 0 0 0-.022-.509 9.98 9.98 0 0 1-.39-1.6 10.83 10.83 0 0 1-.13-1.688.923.923 0 0 0-.93-.93h-3.55a.923.923 0 0 0-.93.93 15.222 15.222 0 0 0 1.233 6.1 15.77 15.77 0 0 0 8.351 8.351 15.222 15.222 0 0 0 6.1 1.233.9.9 0 0 0 .66-.27.874.874 0 0 0 .27-.638v-3.55a.9.9 0 0 0-.266-.661z" class="cls-2" transform="translate(-266.827 -267.431)"/>
    <path id="Path_12" d="M310.5 277.5l2.4 2.741-2.4 2.741" class="cls-2" transform="translate(-294.767 -273.691)"/>
</svg>
