<svg xmlns="http://www.w3.org/2000/svg" id="icon_link" width="16" height="16" viewBox="0 0 16 16">
    <defs>
        <style>
            .cls-2{fill:#2476dd}
        </style>
    </defs>
    <g id="Group_598" transform="translate(-434.163 -109.663)">
        <path id="Path_344" d="M440.139 130.558l-.534.534a2.213 2.213 0 0 1-3.127 0l-.068-.068a2.213 2.213 0 0 1 0-3.127l5-5a2.213 2.213 0 0 1 3.126 0l.034.034a2.247 2.247 0 0 1 .441.624l1.1-1.1a3.8 3.8 0 0 0-.477-.587l-.034-.034a3.721 3.721 0 0 0-5.256 0l-5 5a3.721 3.721 0 0 0 0 5.256l.069.069a3.721 3.721 0 0 0 5.256 0l.534-.534z" class="cls-2" transform="translate(0 -7.677)"/>
        <path id="Path_345" d="M458.151 110.914l-.069-.069a3.721 3.721 0 0 0-5.256 0l-.534.534 1.065 1.065.534-.534a2.213 2.213 0 0 1 3.127 0l.068.068a2.213 2.213 0 0 1 0 3.127l-5 5a2.213 2.213 0 0 1-3.126 0l-.034-.034a2.24 2.24 0 0 1-.441-.624l-1.1 1.1a3.784 3.784 0 0 0 .477.588l.034.034a3.721 3.721 0 0 0 5.256 0l5-5a3.721 3.721 0 0 0-.001-5.255z" class="cls-2" transform="translate(-9.171 0)"/>
    </g>
</svg>
