<svg xmlns="http://www.w3.org/2000/svg" width="18" height="18" viewBox="0 0 18 18">
    <path fill="rgba(255,255,255,0)" d="M0 0H18V18H0z"/>
    <path fill="#666" d="M895.016 31.184l1.571 3.375.313.673.734.112 3.957.6-2.825 2.487-.6.529.158.785.78 3.866a.062.062 0 0 1 0 .014l-.013.009-.013-.008-3.353-2.026-.725-.441-.72.44-3.317 2.029a.131.131 0 0 1-.047.009l.784-3.885.16-.79-.608-.529-2.852-2.48 3.973-.606.734-.112.313-.673 1.566-3.365a.106.106 0 0 0 .006-.013h.021m-.01-1.385a1.387 1.387 0 0 0-1.268.8l-1.571 3.375-3.982.607a1.3 1.3 0 0 0-.7.321 1.345 1.345 0 0 0-.429 1.429 1.229 1.229 0 0 0 .411.643l2.875 2.5-.786 3.893a1.338 1.338 0 0 0 .063.795 1.311 1.311 0 0 0 .491.616 1.364 1.364 0 0 0 .759.241h.037a1.508 1.508 0 0 0 .74-.188L895 42.777l3.357 2.036a1.231 1.231 0 0 0 .348.161 1.39 1.39 0 0 0 .384.053 1.429 1.429 0 0 0 .42-.062 1.121 1.121 0 0 0 .366-.188 1.283 1.283 0 0 0 .509-.616 1.45 1.45 0 0 0 .08-.795l-.786-3.893 2.839-2.5a1.19 1.19 0 0 0 .429-.643 1.345 1.345 0 0 0-.429-1.429 1.3 1.3 0 0 0-.7-.321l-3.982-.607-1.561-3.373a1.388 1.388 0 0 0-1.268-.8z" transform="translate(-886.006 -28.415)"/>
</svg>
