<svg xmlns="http://www.w3.org/2000/svg" id="icon_calculate_default" width="18" height="18" viewBox="0 0 18 18">
    <defs>
        <style>
            .cls-2{fill:#777}
        </style>
    </defs>
    <g id="Group_542" transform="translate(2.7 0.625)">
        <path id="Path_388" d="M200 422v16.54h12.956V422zm11.578 15.161h-10.2v-13.783h10.2z" class="cls-2" transform="translate(-200 -422)"/>
        <path id="Rectangle_1379" d="M0 0H6.66V1.26H0z" class="cls-2" transform="translate(3.148 3.499)"/>
        <path id="Rectangle_1380" d="M0 0H1.26V1.26H0z" class="cls-2" transform="translate(3.148 6.649)"/>
        <path id="Rectangle_1396" d="M0 0H1.26V1.26H0z" class="cls-2" transform="translate(3.148 9.349)"/>
        <path id="Rectangle_1399" d="M0 0H1.26V1.26H0z" class="cls-2" transform="translate(3.148 12.049)"/>
        <path id="Rectangle_1392" d="M0 0H1.26V1.26H0z" class="cls-2" transform="translate(5.848 6.649)"/>
        <path id="Rectangle_1395" d="M0 0H1.26V1.26H0z" class="cls-2" transform="translate(5.848 9.349)"/>
        <path id="Rectangle_1398" d="M0 0H1.26V1.26H0z" class="cls-2" transform="translate(5.848 12.049)"/>
        <path id="Rectangle_1393" d="M0 0H1.26V1.26H0z" class="cls-2" transform="translate(8.548 6.649)"/>
        <path id="Rectangle_1394" d="M0 0H1.26V1.26H0z" class="cls-2" transform="translate(8.548 9.349)"/>
        <path id="Rectangle_1397" d="M0 0H1.26V1.26H0z" class="cls-2" transform="translate(8.548 12.049)"/>
    </g>
</svg>
