<svg xmlns="http://www.w3.org/2000/svg" width="26" height="26">
    <path data-name="Path 496" d="M57.136 346.045h2.045V344H42v2.045h2.045v2.455l.015.818c0 .1-.015.2-.015.3 0 2.868 1.229 5.146 3.369 6.25-2.14 1.1-3.369 3.382-3.369 6.25 0 .1.011.2.015.3l-.015.818v2.454H42v2.045h17.181v-2.045h-2.045v-2.454l-.015-.818c0-.1.015-.2.015-.3 0-2.868-1.229-5.146-3.369-6.25 2.14-1.1 3.369-3.382 3.369-6.25 0-.1-.011-.2-.015-.3l.015-.818zm-1.99 16.055v.059c0 .057-.008.115-.01.172v.115l.014.8v2.436h-9.11v-2.436l.014-.8v-.115c0-.057-.006-.115-.01-.171v-.045c0-3.123 1.7-4.987 4.555-4.987s4.547 1.862 4.547 4.972zm0-13.617-.014.8v.116c0 .057.006.115.01.172v.045c0 3.123-1.7 4.987-4.555 4.987s-4.555-1.864-4.556-4.973v-.059c0-.057.008-.114.01-.171v-.116l-.014-.8v-2.436h9.11z" transform="translate(-37.591 -342.863)" style="fill:#666"/>
</svg>
