<svg xmlns="http://www.w3.org/2000/svg" id="icon_pfofile" width="18" height="18" viewBox="0 0 18 18">
    <defs>
        <style>
            .cls-2{fill:#666}
        </style>
    </defs>
    <path id="Path_24" d="M135.357 31.4a1.958 1.958 0 1 1-1.958 1.958 1.96 1.96 0 0 1 1.958-1.958m0-1.4a3.357 3.357 0 1 0 3.357 3.357A3.357 3.357 0 0 0 135.357 30z" class="cls-2" transform="translate(-126.357 -28.385)"/>
    <path id="Path_25" d="M134.309 63.7h-1.4v-1.624a4.826 4.826 0 0 0-4.06-4.817 4.759 4.759 0 0 0-5.452 4.707V63.7H122v-1.735a6.157 6.157 0 0 1 7.046-6.092 6.231 6.231 0 0 1 5.263 6.2z" class="cls-2" transform="translate(-119.155 -46.976)"/>
</svg>
