<svg xmlns="http://www.w3.org/2000/svg" id="icon_athorize_selected" width="18" height="18" viewBox="0 0 18 18">
    <defs>
        <style>
            .cls-2{fill:#0e4194}
        </style>
    </defs>
    <g id="Group_538" transform="translate(2.935 1.143)">
        <path id="Path_382" d="M610.308 430.616a3.308 3.308 0 1 0-3.308-3.308 3.308 3.308 0 0 0 3.308 3.308zm0-5.238a1.93 1.93 0 1 1-1.93 1.93 1.932 1.932 0 0 1 1.93-1.93z" class="cls-2" transform="translate(-604.243 -424)"/>
        <path id="Path_383" d="M603.943 449.873a6.067 6.067 0 0 0-6.943 6v2.534h1.378v-2.534a4.689 4.689 0 0 1 5.372-4.638 4.755 4.755 0 0 1 4 4.747v2.425h1.378v-2.425a6.139 6.139 0 0 0-5.185-6.109z" class="cls-2" transform="translate(-597 -442.697)"/>
    </g>
</svg>
