<svg xmlns="http://www.w3.org/2000/svg" id="icon_service_selected" width="18" height="18" viewBox="0 0 18 18">
    <defs>
        <style>
            .cls-2{fill:#0e4194}
        </style>
    </defs>
    <g id="Group_614" transform="translate(1.845 0.73)">
        <g id="Group_613" transform="translate(-516.436 -422)">
            <g id="Group_612" transform="translate(523.148 430.55)">
                <path id="Path_394" d="M543.743 456.985a2.243 2.243 0 1 1 2.243-2.243 2.245 2.245 0 0 1-2.243 2.243zm0-3.083a.841.841 0 1 0 .841.841.842.842 0 0 0-.841-.843z" class="cls-2" transform="translate(-541.5 -452.5)"/>
            </g>
            <path id="Path_395" d="M536.737 451.493h-4.2v-1.549q-.168-.092-.328-.2l-1.283.78-2.077-3.785 1.259-.765c0-.077-.006-.154-.006-.23s0-.153.006-.23l-1.259-.765 2.077-3.785 1.283.78q.16-.106.328-.2V440h4.2v1.549q.168.092.328.2l1.283-.78 2.077 3.785-1.259.765c0 .077.006.154.006.23s0 .153-.006.23l1.259.765-2.077 3.785-1.283-.78q-.16.106-.328.2zm-2.8-1.4h1.4v-1.056l.433-.179a3.073 3.073 0 0 0 .806-.491l.385-.324.865.526.727-1.325-.882-.536.065-.458a3.545 3.545 0 0 0 0-1.006l-.065-.457.882-.536-.727-1.325-.865.526-.385-.324a3.074 3.074 0 0 0-.806-.491l-.433-.179V441.4h-1.4v1.056l-.433.179a3.075 3.075 0 0 0-.806.491l-.385.324-.865-.526-.727 1.325.882.536-.065.457a3.545 3.545 0 0 0 0 1.006l.065.458-.882.536.727 1.325.865-.526.385.324a3.074 3.074 0 0 0 .806.491l.433.179z" class="cls-2" transform="translate(-9.244 -12.954)"/>
            <path id="Path_396" d="M518.8 436.857H516V422h10.652v3.925h-1.4V423.4H517.4v12.054h1.4z" class="cls-2"/>
        </g>
    </g>
</svg>
