<svg xmlns="http://www.w3.org/2000/svg" id="icon_2" width="18" height="18" viewBox="0 0 18 18">
    <defs>
        <style>
            .cls-2{fill:#666}
        </style>
    </defs>
    <path id="Path_30" d="M360.485 28.4v1.693l.882.351a5.209 5.209 0 0 1 1.348.789l.751.607.834-.487.614-.359 1.037 1.819-.638.373-.816.477.138.935a5.422 5.422 0 0 1 0 1.592l-.138.935.816.477.638.373-1.037 1.819-.614-.359-.834-.487-.751.607a5.209 5.209 0 0 1-1.348.789l-.882.351v1.693h-2.05v-1.695l-.882-.351a5.215 5.215 0 0 1-1.348-.789l-.751-.607-.834.487-.614.359-1.037-1.819.638-.373.816-.477-.138-.935a5.447 5.447 0 0 1 0-1.592l.138-.935-.816-.477-.638-.373 1.037-1.819.614.359.834.487.751-.607a5.215 5.215 0 0 1 1.348-.789l.882-.351V28.4h2.05m1.4-1.4h-4.848v2.143a6.609 6.609 0 0 0-1.71 1l-1.835-1.072-2.424 4.249 1.833 1.071a6.839 6.839 0 0 0 0 2l-1.833 1.071 2.424 4.249 1.835-1.072a6.609 6.609 0 0 0 1.71 1v2.143h4.848v-2.139a6.614 6.614 0 0 0 1.71-1l1.835 1.072 2.424-4.249-1.833-1.071a6.839 6.839 0 0 0 0-2l1.833-1.071-2.424-4.249-1.835 1.072a6.614 6.614 0 0 0-1.71-1V27z" class="cls-2" transform="translate(-350.46 -26.553)"/>
    <path id="Path_31" d="M372.357 46.4a1.958 1.958 0 1 1-1.958 1.958 1.96 1.96 0 0 1 1.958-1.958m0-1.4a3.357 3.357 0 1 0 3.357 3.357A3.357 3.357 0 0 0 372.357 45z" class="cls-2" transform="translate(-363.376 -39.517)"/>
</svg>
