<svg xmlns="http://www.w3.org/2000/svg" width="18" height="18" viewBox="0 0 18 18">
    <path fill="#777" d="M368.777 430.2a2.063 2.063 0 0 0-2.376.22l-1.121-.647a3.4 3.4 0 0 0 0-2.18l1.121-.647a2.069 2.069 0 1 0-.688-1.194l-1.124.649a3.443 3.443 0 0 0-1.886-1.094v-1.293a2.067 2.067 0 1 0-1.378 0v1.293a3.443 3.443 0 0 0-1.886 1.094l-1.124-.649a2.067 2.067 0 1 0-.688 1.194l1.121.647a3.4 3.4 0 0 0 0 2.18l-1.121.647a2.069 2.069 0 1 0 .688 1.194l1.124-.649a3.444 3.444 0 0 0 1.886 1.094v1.293a2.067 2.067 0 1 0 1.378 0v-1.292a3.444 3.444 0 0 0 1.886-1.094l1.124.649a2.066 2.066 0 1 0 3.064-1.414zm-1.378-5.422a.689.689 0 1 1-.251.943.691.691 0 0 1 .252-.942zm-11.459 1.194a.689.689 0 1 1 .523.069.69.69 0 0 1-.523-.069zm.689 6.616a.689.689 0 1 1 .251-.943.691.691 0 0 1-.251.943zm5.385-11.21a.689.689 0 1 1-.689.689.69.69 0 0 1 .689-.689zm0 14.61a.689.689 0 1 1 .689-.689.69.69 0 0 1-.689.689zm0-5.238a2.067 2.067 0 1 1 2.067-2.067 2.07 2.07 0 0 1-2.067 2.068zm6.326 1.585a.689.689 0 1 1-.252-.942.685.685 0 0 1 .252.943z" transform="translate(-353.014 -419.789)"/>
</svg>
