<svg xmlns="http://www.w3.org/2000/svg" id="icon_charge_default" width="18" height="18" viewBox="0 0 18 18">
    <defs>
        <style>
            .cls-3{fill:#666}
        </style>
    </defs>
    <g id="Group_540" transform="translate(0.358 1.176)">
        <path id="Path_385" fill="#777" d="M287.642 425.894a2.705 2.705 0 0 0-2.205-2.886V423h-10.3a2.656 2.656 0 0 0-2.653 2.653v9.2H270v1.241a2.9 2.9 0 0 0 2.894 2.894h8.546a2.9 2.9 0 0 0 2.894-2.894v-8.959h3.308zm-14.748 11.716a1.518 1.518 0 0 1-1.51-1.378h7.164a2.877 2.877 0 0 0 .426 1.378zm10.062-2.343v.827a1.516 1.516 0 0 1-3.032 0v-1.241h-6.065v-9.2a1.276 1.276 0 0 1 1.275-1.275h8.173a3.389 3.389 0 0 0-.351 1.516v9.373zm1.383-9.51c.047-.749.476-1.378.96-1.378s.913.63.96 1.378z" transform="translate(-270 -423)"/>
        <path id="Rectangle_1373" d="M0 0H6.04V1.26H0z" class="cls-3" transform="translate(5.331 3.673)"/>
        <path id="Rectangle_1374" d="M0 0H6.04V1.26H0z" class="cls-3" transform="translate(5.331 6.373)"/>
    </g>
</svg>
