<svg xmlns="http://www.w3.org/2000/svg" width="12" height="10" viewBox="0 0 12 10">
    <defs>
        <clipPath id="1r8jv4caka">
            <path fill="#fff" d="M0 0H12V10H0z" transform="translate(849 887)"/>
        </clipPath>
    </defs>
    <g clip-path="url(#1r8jv4caka)" transform="translate(-849 -887)">
        <g fill="#fff">
            <path d="M11.482 18.5H4.518c-.852 0-1.611-.407-2.082-1.117-.472-.71-.553-1.568-.222-2.353l3.482-8.27C6.17 5.634 7.198 5.23 8 5.23c.802 0 1.83.403 2.304 1.53l3.482 8.27c.33.785.25 1.643-.222 2.353-.47.71-1.23 1.117-2.082 1.117z" transform="translate(847 883.77)"/>
            <path fill="#0e4194" d="M8 5.73c-.832 0-1.52.458-1.843 1.225l-3.482 8.269c-.265.628-.2 1.314.177 1.882.377.568.984.894 1.666.894h6.964c.682 0 1.289-.326 1.666-.894.377-.568.442-1.254.177-1.882l-3.482-8.27C9.521 6.189 8.832 5.732 8 5.732m0-1c1.125 0 2.25.612 2.765 1.836l3.482 8.269c.832 1.977-.62 4.164-2.765 4.164H4.518c-2.145 0-3.597-2.187-2.765-4.164l3.482-8.27C5.75 5.344 6.875 4.732 8 4.732z" transform="translate(847 883.77)"/>
        </g>
    </g>
</svg>
