<svg xmlns="http://www.w3.org/2000/svg" width="40" height="40" viewBox="0 0 40 40">
    <path fill="#2476dd" d="M741 593.956v-15.337h18.091v15.338zm1.573-1.573h14.944v-12.191h-3.933v3.146h-7.079v-3.146h-3.933zm5.506-10.618h3.933v-1.573h-3.933zm20.45 7.09v-.011h-7.866v-1.573h4.719v-17.7h-20.45v8.259h-1.572V568h23.6v5.113h5.462a2.36 2.36 0 0 1 1.949 1.03l2.491 4.476h.324a2.317 2.317 0 0 1 2.36 2.527v5.339a2.363 2.363 0 0 1-2.36 2.36h-.786v.02a3.826 3.826 0 0 1-2.378 3.592 3.956 3.956 0 0 1-5.487-3.6zm1.461-.018a2.368 2.368 0 1 0 2.381-2.353h-.014a2.362 2.362 0 0 0-2.367 2.353zm7.191-1.566a.786.786 0 0 0 .787-.786v-5.338c0-.634-.265-.954-.787-.954h-1.249l-2.9-5.224a.78.78 0 0 0-.612-.282h-5.461v12.585h1.894a3.945 3.945 0 0 1 7.21 0zm-29.889 3.54v-1.573h1.573v1.573zm-3.146 0v-1.573h1.573v1.573zm23.6-9.83v-1.575h4.554l-1.282-1.925 1.309-.873 1.7 2.559v1.813z" transform="translate(-740.271 -560.956)"/>
</svg>
