<svg xmlns="http://www.w3.org/2000/svg" id="icon_후원_hover" width="40" height="40" viewBox="0 0 40 40">
    <defs>
        <style>
            .cls-2{fill:#2476dd}
        </style>
    </defs>
    <g id="Group_27" transform="translate(1.406 3.709)">
        <g id="Group_27-2" transform="translate(0 0)">
            <path id="Shape_35" d="M2093.919 598.472l-8.652-8.652a.787.787 0 0 1 0-1.113l3.933-3.933a.786.786 0 0 1 1.112 0l1.017 1.017 2.59-2.59a6.239 6.239 0 0 1 3.7-1.8h3.94a3.977 3.977 0 0 1 2.25 1.078 4.312 4.312 0 0 0 .727.495l4.092-.007a3.3 3.3 0 0 1 2.274.792l2.653-1.377c.935-1.771 1.881-2.943 3.554-3.331a3.87 3.87 0 0 1 3.957 1.083.788.788 0 0 1 .093.779 42.569 42.569 0 0 1-4.072 6.512c-.052.058-5.418 5.773-6.885 5.773H2099.2a1.3 1.3 0 0 0-.407.054l.177.177a.787.787 0 0 1 0 1.112l-3.9 3.9a.842.842 0 0 1-1.142.03zm-6.984-9.03l7.541 7.54 2.82-2.821-7.54-7.54zm10.7 2.654a2.5 2.5 0 0 1 1.56-.474h10.922c.892-.372 4.88-4.232 5.781-5.242a45.2 45.2 0 0 0 3.557-5.572 2.842 2.842 0 0 0-2.006-.217c-1.019.236-1.7.952-2.62 2.732a.81.81 0 0 1-.342.346l-2.792 1.45a2.612 2.612 0 0 1 .071.6 2.863 2.863 0 0 1-3.146 2.753h-6.292V586.9h6.292c1.087 0 1.573-.59 1.573-1.18s-.487-1.18-1.573-1.18h-4.141a2.9 2.9 0 0 1-1.619-.814 3.444 3.444 0 0 0-1.3-.759h-3.933a4.812 4.812 0 0 0-2.61 1.362l-2.57 2.571zM2089.2 590l1.112-1.113 1.573 1.573-1.113 1.112zm17.714-10.513c-4.734-3.448-6.851-5.239-7.261-7.924a4.831 4.831 0 0 1 1.629-4.553 4.712 4.712 0 0 1 2.827-.908 4.747 4.747 0 0 0 6.538 0 4.709 4.709 0 0 1 2.826.908 4.83 4.83 0 0 1 1.63 4.553c-.411 2.684-2.529 4.476-7.261 7.924l-.463.337zm-4.672-11.23a3.273 3.273 0 0 0-1.035 3.068c.293 1.916 1.816 3.361 6.17 6.552 4.354-3.191 5.876-4.635 6.17-6.552a3.273 3.273 0 0 0-1.036-3.068 3.1 3.1 0 0 0-1.865-.581 2.976 2.976 0 0 0-2.6 1.4l-.668 1.085-.669-1.085a2.975 2.975 0 0 0-2.6-1.4 3.1 3.1 0 0 0-1.866.582z" class="cls-2" transform="translate(-2085.036 -566.098)"/>
        </g>
        <path id="Color_Overlay" d="M2093.919 598.472l-8.652-8.652a.787.787 0 0 1 0-1.113l3.933-3.933a.786.786 0 0 1 1.112 0l1.017 1.017 2.59-2.59a6.239 6.239 0 0 1 3.7-1.8h3.94a3.977 3.977 0 0 1 2.25 1.078 4.312 4.312 0 0 0 .727.495l4.092-.007a3.3 3.3 0 0 1 2.274.792l2.653-1.377c.935-1.771 1.881-2.943 3.554-3.331a3.87 3.87 0 0 1 3.957 1.083.788.788 0 0 1 .093.779 42.569 42.569 0 0 1-4.072 6.512c-.052.058-5.418 5.773-6.885 5.773H2099.2a1.3 1.3 0 0 0-.407.054l.177.177a.787.787 0 0 1 0 1.112l-3.9 3.9a.842.842 0 0 1-1.142.03zm-6.984-9.03l7.541 7.54 2.82-2.821-7.54-7.54zm10.7 2.654a2.5 2.5 0 0 1 1.56-.474h10.922c.892-.372 4.88-4.232 5.781-5.242a45.2 45.2 0 0 0 3.557-5.572 2.842 2.842 0 0 0-2.006-.217c-1.019.236-1.7.952-2.62 2.732a.81.81 0 0 1-.342.346l-2.792 1.45a2.612 2.612 0 0 1 .071.6 2.863 2.863 0 0 1-3.146 2.753h-6.292V586.9h6.292c1.087 0 1.573-.59 1.573-1.18s-.487-1.18-1.573-1.18h-4.141a2.9 2.9 0 0 1-1.619-.814 3.444 3.444 0 0 0-1.3-.759h-3.933a4.812 4.812 0 0 0-2.61 1.362l-2.57 2.571zM2089.2 590l1.112-1.113 1.573 1.573-1.113 1.112zm17.714-10.513c-4.734-3.448-6.851-5.239-7.261-7.924a4.831 4.831 0 0 1 1.629-4.553 4.712 4.712 0 0 1 2.827-.908 4.747 4.747 0 0 0 6.538 0 4.709 4.709 0 0 1 2.826.908 4.83 4.83 0 0 1 1.63 4.553c-.411 2.684-2.529 4.476-7.261 7.924l-.463.337zm-4.672-11.23a3.273 3.273 0 0 0-1.035 3.068c.293 1.916 1.816 3.361 6.17 6.552 4.354-3.191 5.876-4.635 6.17-6.552a3.273 3.273 0 0 0-1.036-3.068 3.1 3.1 0 0 0-1.865-.581 2.976 2.976 0 0 0-2.6 1.4l-.668 1.085-.669-1.085a2.975 2.975 0 0 0-2.6-1.4 3.1 3.1 0 0 0-1.866.582z" class="cls-2" transform="translate(-2085.036 -566.098)"/>
    </g>
</svg>
