<svg xmlns="http://www.w3.org/2000/svg" id="icon_보육" width="40" height="40" viewBox="0 0 40 40">
    <defs>
        <style>
            .cls-2{fill:#222}
        </style>
    </defs>
    <g id="Group_577" transform="translate(3.679 1.909)">
        <path id="Path_334" d="M919.388 568.573a10.827 10.827 0 0 1 10.812 10.815v14.387a3.9 3.9 0 0 1-3.9 3.9h-13.83a3.9 3.9 0 0 1-3.9-3.9v-14.387a10.827 10.827 0 0 1 10.815-10.815m0-1.573A12.388 12.388 0 0 0 907 579.388v14.387a5.473 5.473 0 0 0 5.473 5.473H926.3a5.473 5.473 0 0 0 5.473-5.473v-14.387A12.388 12.388 0 0 0 919.388 567z" class="cls-2" transform="translate(-903.067 -563.067)"/>
        <path id="Path_335" d="M900.933 602.9v9.568a3.938 3.938 0 0 1-2.36-3.6v-2.36a3.938 3.938 0 0 1 2.36-3.6m1.573-1.9a5.506 5.506 0 0 0-5.506 5.498v2.36a5.506 5.506 0 0 0 5.506 5.506V601z" class="cls-2" transform="translate(-897 -583.696)"/>
        <path id="Path_336" d="M967.573 602.9a3.938 3.938 0 0 1 2.36 3.6v2.36a3.938 3.938 0 0 1-2.36 3.6v-9.56M966 601v13.372a5.506 5.506 0 0 0 5.506-5.506v-2.36A5.506 5.506 0 0 0 966 601z" class="cls-2" transform="translate(-938.864 -583.696)"/>
        <path id="Path_337" d="M931.093 611.573a1.674 1.674 0 0 1 1.671 1.671v3.736a1.674 1.674 0 0 1-1.671 1.671h-8.849a1.674 1.674 0 0 1-1.671-1.671v-3.736a1.674 1.674 0 0 1 1.671-1.671h8.849m0-1.573h-8.849a3.245 3.245 0 0 0-3.244 3.245v3.736a3.245 3.245 0 0 0 3.244 3.245h8.849a3.245 3.245 0 0 0 3.245-3.245v-3.736a3.245 3.245 0 0 0-3.245-3.245z" class="cls-2" transform="translate(-910.348 -589.156)"/>
        <path id="Path_338" d="M930.524 581.805l3 3-3 3-3-3 3-3m0-1.668a1.34 1.34 0 0 0-.95.394l-3.322 3.322a1.343 1.343 0 0 0 0 1.9l3.322 3.322a1.344 1.344 0 0 0 1.9 0l3.322-3.322a1.344 1.344 0 0 0 0-1.9l-3.322-3.322a1.34 1.34 0 0 0-.95-.394z" class="cls-2" transform="translate(-914.509 -571.038)"/>
        <path id="Path_339" d="M932.146 558.573a1.575 1.575 0 0 1 1.573 1.573v.787h-3.146v-.787a1.575 1.575 0 0 1 1.573-1.573m0-1.573a3.146 3.146 0 0 0-3.146 3.146v2.36h6.292v-2.36a3.146 3.146 0 0 0-3.146-3.146z" class="cls-2" transform="translate(-916.415 -557)"/>
        <path id="Rectangle_875" d="M0 0H4.699V1.972H0z" class="cls-2" transform="translate(4.642 25.773)"/>
        <path id="Rectangle_876" d="M0 0H4.824V1.972H0z" class="cls-2" transform="translate(23.048 25.773)"/>
        <path id="Rectangle_877" d="M0 0H14.027V1.972H0z" class="cls-2" transform="translate(9.243 23.801)"/>
    </g>
</svg>
