<svg xmlns="http://www.w3.org/2000/svg" id="icon_체인도매" width="40" height="40" viewBox="0 0 40 40">
    <defs>
        <style>
            .cls-2{fill:#222}
        </style>
    </defs>
    <g id="Group_571" transform="translate(1.909 4.072)">
        <path id="Path_303" d="M1513.5 561.573l5.732 7.866h-32.295l5.609-7.866h20.954m.8-1.573h-22.565l-6.735 9.444v1.568h36.182v-1.568L1514.3 560z" class="cls-2" transform="translate(-1485 -560)"/>
        <path id="Path_304" d="M1519.609 585.573v1.4c0 1.11-1.55 2.347-3.775 2.347a4.409 4.409 0 0 1-3.361-1.325l-1.213-1.47-1.213 1.47a2.871 2.871 0 0 1-2.582 1.325 3.557 3.557 0 0 1-2.967-1.325l-1.213-1.47-1.213 1.47a3.986 3.986 0 0 1-5.935 0l-1.213-1.47-1.213 1.47a4.408 4.408 0 0 1-3.36 1.325c-2.225 0-3.775-1.237-3.775-2.347v-1.4h33.036m1.573-1.573H1485v2.968c0 2.165 2.394 3.92 5.348 3.92a5.939 5.939 0 0 0 4.574-1.9 15.353 15.353 0 0 1 12.542 1.9 4.353 4.353 0 0 0 3.8-1.9 5.94 5.94 0 0 0 4.574 1.9c2.954 0 5.348-1.755 5.348-3.92V584z" class="cls-2" transform="translate(-1485 -574.561)"/>
        <path id="Rectangle_856" d="M0 0H1.315V13.805H0z" class="cls-2" transform="translate(17.725 0.27)"/>
        <path id="Path_305" d="M1548.621 574.383h-1.573V571.1l-1.914-9.782 1.544-.3 1.943 10.008z" class="cls-2" transform="translate(-1521.484 -560.619)"/>
        <path id="Path_306" d="M1510.573 574.383H1509l.015-3.506 1.928-9.857 1.544.3-1.914 9.782z" class="cls-2" transform="translate(-1499.561 -560.619)"/>
        <path id="Path_307" d="M1522.462 614.3H1491V597h1.573v15.731h28.316V597h1.573z" class="cls-2" transform="translate(-1488.64 -582.449)"/>
        <path id="Path_308" d="M1511.079 607.573v10.619h-5.506v-10.619h5.506m1.573-1.573H1504v13.765h8.652V606z" class="cls-2" transform="translate(-1496.528 -587.909)"/>
        <path id="Path_309" d="M1542.472 607.573v5.506h-5.9v-5.506h5.9m1.573-1.573H1535v8.652h9.045V606z" class="cls-2" transform="translate(-1515.336 -587.909)"/>
    </g>
</svg>
