<svg xmlns="http://www.w3.org/2000/svg" width="40" height="40" viewBox="0 0 40 40">
    <path fill="#222" d="M1372.138 568.965a.7.7 0 0 0-.822-.106c-.753.537-1.069 1.767-1.762 2.463-1.522 1.528-3.644 2.342-4.909 4.142a4.7 4.7 0 0 0-.781 1.854 36.93 36.93 0 0 0-3.508-4.109 8.349 8.349 0 0 0 1.2-.988 8.7 8.7 0 0 0 .717-.789 20.626 20.626 0 0 0 2.335-3.931l.338-.68a.55.55 0 0 0 .059-.21c1.311-1.966 4.551-7.222 2.641-8.609-.725-.529-1.831-.214-3.294.928-.426-2.115-1.131-3.208-2.1-3.249-1.21-.056-1.994 1.571-2.492 3.408-.972-1.532-1.893-2.189-2.748-1.944-1.232.353-1.405 2.343-1.26 4.294-1.292-1.516-2.623-2.5-3.635-1.973-1.03.535-.966 2.188-.515 3.983-1.485-1.2-3.157-2.133-4.13-1.349-.692.558-.682 1.689.01 3.367-1.787-.651-3.568-.945-4.218.077-.526.82-.037 2.026 1.448 3.59-1.776.54-2.672 1.266-2.657 2.163.041 2.307 5.943 2.712 8.411 2.783a.657.657 0 0 0 .291.112.06.06 0 0 0 .016 0 .694.694 0 0 0 .163.026c.254.04.507.077.759.114a19.236 19.236 0 0 0 4.478.319 9.665 9.665 0 0 0 1.043-.14 8.051 8.051 0 0 0 1.43-.411c.16-.062.32-.131.48-.205a35.2 35.2 0 0 1 7.266 10.373 4.519 4.519 0 0 0-1.378-.369c-2.109-.212-3.947.9-5.932 1.388a6.8 6.8 0 0 1-2.519.234c-.417-.058-.773-.252-1.192-.109a.693.693 0 0 0-.5.654c.094 1.524 2.837 2.845 4.039 3.28 3.067 1.11 6.169.153 8.811-1.516a23.8 23.8 0 0 1 .876 4.29c.089.86 1.448.869 1.357 0a29.453 29.453 0 0 0-4.054-11.72c2.844-1.137 5.391-2.992 6.381-6.024.382-1.163 1.026-4.46-.143-5.411zm-5.286-9.859c.186.4-.216 2.3-2.069 5.348v-.123c0-.3.006-.607 0-.906v-.068c-.005-.284-.013-.562-.025-.835 0-.079-.005-.158-.011-.235-.015-.279-.031-.553-.052-.821v-.049c-.022-.286-.053-.565-.084-.839 0-.028 0-.059-.007-.088 1.331-1.176 2.049-1.399 2.248-1.385zm-4.662-2.058c.193.129.713.925 1.023 3.264a30.059 30.059 0 0 1 .182 5.215c0 .1-.009.2-.014.3-.009.166-.019.339-.033.526l-.942.489.37-.192c-.073-.3-.155-.6-.242-.9s0 0 0-.007c-.255-.888-.538-1.75-.839-2.565a.356.356 0 0 0-.022-.057c-.136-.365-.275-.721-.418-1.063-.017-.04-.033-.086-.051-.127q-.208-.489-.425-.949c-.014-.027-.027-.059-.04-.086.544-2.857 1.24-3.732 1.451-3.849zm-4.8 1.412c.226.059.982.66 2.036 2.823l.218.464c.01.018.018.041.027.059.058.126.116.26.173.392l.069.155c.061.148.125.3.184.451l.05.119c.074.187.147.378.22.57a.043.043 0 0 1 .006.02c.3.8.579 1.645.831 2.519l.024.083c.016.053.029.107.043.157.082.282.156.565.229.845l.044.172-1.572.816c-.215-.465-.439-.919-.663-1.349a34.1 34.1 0 0 0-1.931-3.275c-.557-3.228-.242-4.764.01-5.021zm-9.054 4.7c.352-.057 1.793.567 4.111 2.88.062.155.128.312.191.47.044.107.087.219.133.329.079.188.163.374.247.564.044.107.091.212.138.318.091.2.188.407.285.609.046.095.086.188.132.283.143.3.293.593.446.888s.295.554.444.825c.02.039.039.076.061.11.072.131.145.257.218.383l1.2-.624c-.078-.143-.158-.281-.236-.424-.02-.031-.038-.068-.058-.1-.148-.263-.29-.529-.426-.791a32.981 32.981 0 0 1-1.558-3.456c-1.121-2.946-1.1-4.457-.917-4.745.643 0 2.955 2.253 5.287 6.741.24.464.463.914.663 1.349l-5.527 2.871c-.052-.057-.1-.115-.153-.177l-.239-.284c-.135-.163-.27-.322-.407-.5l-.034-.043c-.569-.706-1.1-1.417-1.579-2.12-.056-.078-.107-.154-.16-.234-.062-.1-.13-.192-.192-.29s-.131-.207-.2-.31l-.136-.216c-.065-.1-.126-.206-.188-.311-.039-.068-.083-.137-.12-.2-.1-.168-.2-.337-.288-.5-1.165-2.109-1.222-3.073-1.141-3.292zm-4.914 8.114c.1-.17.694-.628 2.427-1.047.025.026.055.048.079.07.2.177.406.355.621.533l.065.051c.2.167.406.332.617.5.063.048.126.1.19.146.223.171.45.343.685.516l.035.024c.245.179.5.357.755.533.032.018.06.042.089.061-3.56-.239-5.348-1.003-5.565-1.384zm7.941 1.3c-.256-.154-.483-.3-.7-.437l-.584-.381c-.385-.255-.761-.515-1.123-.778a26.9 26.9 0 0 1-2.451-1.987l-.007-.008c-1.73-1.594-2.08-2.474-2.078-2.7.217-.105 1.336-.174 3.979 1.022.016.03.035.059.051.084.167.292.343.586.53.887.026.044.051.084.081.126.2.311.4.625.619.94l.048.07c.48.7 1.007 1.4 1.571 2.1.014.019.026.036.036.046.2.249.4.491.606.725l1.072-.557zm7.529-.07a6.892 6.892 0 0 1-1.143.479 7.046 7.046 0 0 1-1.453.3 9.667 9.667 0 0 1-1.568.035c-.518-.025-1.035-.086-1.553-.157l9.542-4.956c-.224.43-.454.848-.706 1.253a9.921 9.921 0 0 1-.933 1.287 7.322 7.322 0 0 1-1.142 1.091 7.23 7.23 0 0 1-1.046.671zm8.194 14.127c-2.245 1.432-4.839 2.375-7.493 1.519a7.676 7.676 0 0 1-2.3-1.216c-.045-.034-.086-.073-.13-.109a5.07 5.07 0 0 0 .869.03c1.769-.193 3.308-1.035 5.015-1.44 1.408-.33 3.358-.215 4.037 1.219zm3.931-12.751c-.828 2.675-3.137 4.293-5.634 5.273-1.044-1.767 1.114-3.863 2.575-4.883a14.685 14.685 0 0 0 3.155-2.656c.106-.13.206-.266.3-.4a12.772 12.772 0 0 1-.397 2.669z" transform="translate(-1339.054 -554.205)"/>
</svg>
