<svg xmlns="http://www.w3.org/2000/svg" id="icon_장기요양_hover" width="40" height="40" viewBox="0 0 40 40">
    <defs>
        <style>
            .cls-2{fill:#2476dd}
        </style>
    </defs>
    <g id="Group_574" transform="translate(9 1.639)">
        <g id="Group_34" transform="translate(0 6.292)">
            <g id="Group_34-2">
                <path id="Shape_67" d="M1664.45 601.069V599.5h3.539v-14.162h-3.539v-1.573h1.966v-1.573h-1.966v-1.573h3.539v3.146h1.573v17.3zm-20.45 0V570h18.877v31.069zm17.3-1.18v-28.316h-15.731v28.316h4.719V593.6h6.292v6.292zm-9.438 0h3.146v-4.719h-3.146zm5.506-8.652v-2.36h-1.568v2.36h-1.573V587.3h4.719v3.933zm-6.292 0v-2.36h-1.573v2.36h-1.573V587.3h4.719v3.933zm6.292-6.292v-2.36h-1.568v2.36h-1.573v-3.933h4.719v3.933zm-6.292 0v-2.36h-1.573v2.36h-1.573v-3.933h4.719v3.933zm6.292-6.292v-2.36h-1.568v2.36h-1.573v-3.933h4.719v3.933zm-6.292 0v-2.36h-1.573v2.36h-1.573v-3.933h4.719v3.933z" class="cls-2" transform="translate(-1644 -570)"/>
            </g>
            <path id="Color_Overlay" d="M1664.45 601.069V599.5h3.539v-14.162h-3.539v-1.573h1.966v-1.573h-1.966v-1.573h3.539v3.146h1.573v17.3zm-20.45 0V570h18.877v31.069zm17.3-1.18v-28.316h-15.731v28.316h4.719V593.6h6.292v6.292zm-9.438 0h3.146v-4.719h-3.146zm5.506-8.652v-2.36h-1.568v2.36h-1.573V587.3h4.719v3.933zm-6.292 0v-2.36h-1.573v2.36h-1.573V587.3h4.719v3.933zm6.292-6.292v-2.36h-1.568v2.36h-1.573v-3.933h4.719v3.933zm-6.292 0v-2.36h-1.573v2.36h-1.573v-3.933h4.719v3.933zm6.292-6.292v-2.36h-1.568v2.36h-1.573v-3.933h4.719v3.933zm-6.292 0v-2.36h-1.573v2.36h-1.573v-3.933h4.719v3.933z" class="cls-2" transform="translate(-1644 -570)"/>
        </g>
        <path id="Path_323" d="M1664.292 555.573v4.719h-4.719v-4.719h4.719m1.573-1.573H1658v7.866h7.865V554z" class="cls-2" transform="translate(-1652.494 -554)"/>
        <path id="Rectangle_858" d="M0 0H1.313V3.944H0z" class="cls-2" transform="translate(8.772 1.972)"/>
        <path id="Rectangle_859" d="M0 0H3.944V1.315H0z" class="cls-2" transform="translate(7.457 3.287)"/>
    </g>
</svg>
