<svg xmlns="http://www.w3.org/2000/svg" width="18" height="18" viewBox="0 0 18 18">
    <path fill="rgba(255,255,255,0)" d="M0 0h18v18H0z"/>
    <path fill="#555" stroke="rgba(0,0,0,0)" stroke-miterlimit="10" d="M-1938.3 15.179a1.213 1.213 0 0 1-.348-.161l-3.352-2.036-3.356 2.054a1.515 1.515 0 0 1-.74.188h-.038a1.373 1.373 0 0 1-.759-.241 1.321 1.321 0 0 1-.49-.616 1.35 1.35 0 0 1-.063-.795l.786-3.893-2.875-2.5a1.223 1.223 0 0 1-.41-.642 1.46 1.46 0 0 1 0-.786 1.441 1.441 0 0 1 .429-.643 1.3 1.3 0 0 1 .7-.322l3.983-.607 1.565-3.379a1.376 1.376 0 0 1 .518-.589A2.53 2.53 0 0 1-1942 0a1.371 1.371 0 0 1 .75.214 1.4 1.4 0 0 1 .519.589l1.57 3.375 3.983.607a1.3 1.3 0 0 1 .7.322 1.447 1.447 0 0 1 .428.643 1.457 1.457 0 0 1 0 .786 1.185 1.185 0 0 1-.428.642l-2.84 2.5.786 3.893a1.452 1.452 0 0 1-.08.795 1.279 1.279 0 0 1-.51.616 1.112 1.112 0 0 1-.365.188 1.428 1.428 0 0 1-.42.062 1.4 1.4 0 0 1-.393-.053z" transform="translate(1951 1.384)"/>
</svg>
