<svg xmlns="http://www.w3.org/2000/svg" width="40" height="40" viewBox="0 0 40 40">
    <g>
        <g>
            <path fill="#222" d="M306.405 593.1l-1.571-1.573H291v-23.6h2.36v1.573h-.787v20.45h12.914l1.571 1.573h5.64l1.568-1.573h12.915V569.5h-.787v-1.573h2.36v23.6h-13.835l-1.568 1.573zm2.686-3.146h-1.18l-.236-.315a3.087 3.087 0 0 0-2.517-1.259h-11.012v-22.81h3.146a1.573 1.573 0 0 1 1.574-1.57h3.146a1.573 1.573 0 0 1 1.573 1.573h1.573a5.268 5.268 0 0 1 4.719 2.457 5.268 5.268 0 0 1 4.719-2.457h11.012v22.81H314.6c-1.633 0-2.141.551-2.447 1.146l-.22.427zm1.573-1.573H311a4.049 4.049 0 0 1 3.592-1.573h9.439v-19.662H314.6a3.58 3.58 0 0 0-3.89 3.264 3.807 3.807 0 0 1 2.215 1.855l-1.371.773a2.493 2.493 0 0 0-.888-.953v2.244a3.794 3.794 0 0 1 2.259 1.868l-1.371.773a2.492 2.492 0 0 0-.888-.952v2.244a3.793 3.793 0 0 1 2.259 1.867l-1.371.773a2.492 2.492 0 0 0-.888-.952v2.25a3.793 3.793 0 0 1 2.259 1.868l-1.371.772a2.491 2.491 0 0 0-.888-.952zm-14.945-1.573h9.381a4.6 4.6 0 0 1 3.518 1.573h.469v-4.5a2.49 2.49 0 0 0-.888.951l-1.37-.772a3.792 3.792 0 0 1 2.258-1.868v-2.244a2.494 2.494 0 0 0-.888.952l-1.37-.772a3.792 3.792 0 0 1 2.258-1.867v-2.241a2.488 2.488 0 0 0-.888.952l-1.37-.772a3.791 3.791 0 0 1 2.258-1.868v-2.244a2.487 2.487 0 0 0-.888.952l-1.37-.772a3.8 3.8 0 0 1 2.215-1.856 3.58 3.58 0 0 0-3.889-3.264h-1.573v7.762l-3.146-2.1-3.146 2.1v-7.762h-1.573zm6.292-14.841v-6.4h-3.146v6.4l1.573-1.048z" transform="translate(1.123 5) translate(0 0) translate(-291 -564)"/>
        </g>
    </g>
</svg>
