<svg xmlns="http://www.w3.org/2000/svg" id="icon_협회단체" width="40" height="40" viewBox="0 0 40 40">
    <defs>
        <style>
            .cls-2{fill:#222}
        </style>
    </defs>
    <g id="Group_575" transform="translate(0.729 5.449)">
        <path id="Path_325" d="M1977.719 563.573a3.146 3.146 0 1 1-3.146 3.146 3.15 3.15 0 0 1 3.146-3.146m0-1.573a4.719 4.719 0 1 0 4.719 4.719 4.72 4.72 0 0 0-4.719-4.719z" class="cls-2" transform="translate(-1958.449 -562)"/>
        <path id="Path_326" d="M1979.3 607.125h-1.573V597.08a7.016 7.016 0 0 0-5.2-6.86 7.163 7.163 0 0 0-6.218 1.242 7.039 7.039 0 0 0-2.743 5.6v10.068H1962v-10.072a8.6 8.6 0 0 1 3.351-6.838 8.726 8.726 0 0 1 7.573-1.523 8.588 8.588 0 0 1 6.38 8.384z" class="cls-2" transform="translate(-1951.775 -578.023)"/>
        <path id="Path_327" d="M2005.719 572.573a3.146 3.146 0 1 1-3.146 3.146 3.15 3.15 0 0 1 3.146-3.146m0-1.573a4.719 4.719 0 1 0 4.719 4.719 4.719 4.719 0 0 0-4.719-4.719z" class="cls-2" transform="translate(-1975.437 -567.461)"/>
        <path id="Path_328" d="M2013.874 612.752h-1.574v-6.4a7.073 7.073 0 0 0-6.218-7.061 6.9 6.9 0 0 0-4.413 1.034l-.841-1.33a8.471 8.471 0 0 1 5.41-1.27 8.661 8.661 0 0 1 7.635 8.626z" class="cls-2" transform="translate(-1975.333 -583.65)"/>
        <path id="Path_329" d="M1949.719 572.573a3.146 3.146 0 1 1-3.146 3.146 3.15 3.15 0 0 1 3.146-3.146m0-1.573a4.719 4.719 0 1 0 4.719 4.719 4.72 4.72 0 0 0-4.719-4.719z" class="cls-2" transform="translate(-1941.461 -567.461)"/>
        <path id="Path_330" d="M1937.573 612.752H1936v-6.4a8.661 8.661 0 0 1 7.635-8.626 8.5 8.5 0 0 1 4.877.959l-.743 1.387a6.953 6.953 0 0 0-3.978-.781 7.074 7.074 0 0 0-6.218 7.061z" class="cls-2" transform="translate(-1936 -583.649)"/>
    </g>
</svg>
